<svg id="Layer_1" data-name="Layer 1" xmlns="http://www.w3.org/2000/svg" viewBox="0 0 743 743"><defs><style>.cls-1{fill:#ecce7a;}.cls-2{fill:#e5bb4b;}</style></defs><title>Cafe_btn</title><rect class="cls-1" width="743" height="743"/><path class="cls-2" d="M363.08,581.62q22.95,22.95,55.39,23H810.2q32.44,0,55.39-23t22.95-55.39H340.12Q340.14,558.67,363.08,581.62Z" transform="translate(-252.63 -17.63)"/><path class="cls-2" d="M487,487.06H702.47q28.15,0,48.35-20.2T771,418.5v-9.79H790.6q48.66,0,83.1-34.42t34.43-83.09q0-48.66-34.43-83.09t-83.1-34.43H438.06a19.86,19.86,0,0,0-19.59,19.58V418.5q0,28.15,20.2,48.36T487,487.06ZM771,232.44h19.59q24.48,0,41.62,17.14t17.14,41.62q0,24.48-17.14,41.62T790.61,350H771Z" transform="translate(-252.63 -17.63)"/></svg>