<svg xmlns="http://www.w3.org/2000/svg" viewBox="0 0 743 743"><defs><style>.cls-1{isolation:isolate;}.cls-2{fill:#ecce7a;}.cls-3{mix-blend-mode:darken;}.cls-4{fill:#ff9f23;}</style></defs><title>Cafe_btn</title><g class="cls-1"><g id="Layer_1" data-name="Layer 1"><rect class="cls-2" width="743" height="743"/><g class="cls-3"><path class="cls-4" d="M314.68,578.6q22.32,22.32,53.84,22.31H749.21q31.53,0,53.83-22.31t22.3-53.83h-533Q292.38,556.3,314.68,578.6Z" transform="translate(-196.88 -20.03)"/><path class="cls-4" d="M435.14,486.7H644.52q27.35,0,47-19.62t19.63-47v-9.51h19q47.28,0,80.75-33.46t33.46-80.75q0-47.3-33.46-80.75t-80.75-33.46H387.55a19.3,19.3,0,0,0-19,19V420.08q0,27.36,19.63,47T435.14,486.7Zm276-247.44h19q23.8,0,40.45,16.65t16.65,40.45q0,23.79-16.65,40.45t-40.45,16.66h-19Z" transform="translate(-196.88 -20.03)"/></g></g></g></svg>