<svg xmlns="http://www.w3.org/2000/svg" viewBox="0 0 743 743"><defs><style>.cls-1{isolation:isolate;}.cls-2{fill:#ecce7a;}.cls-3{fill:#ff931e;mix-blend-mode:darken;}</style></defs><title>Disco_btn</title><g class="cls-1"><g id="Layer_1" data-name="Layer 1"><rect class="cls-2" width="743" height="743"/><path class="cls-3" d="M880.72,133.82a9.46,9.46,0,0,0-7.35-2.25L584.79,168.91a9.3,9.3,0,0,0-8.11,9.23V509.66c-17-20.43-44-33.73-74.47-33.73-51.33,0-93.09,37.59-93.09,83.79s41.76,83.78,93.09,83.78,93.09-37.58,93.09-83.78c0-2.16-.18-4.29-.36-6.4a8.88,8.88,0,0,0,.36-1.79v-270l270-34.93v170c-17-20.42-44-33.72-74.47-33.72-51.33,0-93.09,37.58-93.09,83.79s41.76,83.78,93.09,83.78c50.87,0,92.28-36.92,93-82.55,0-.12.06-.22.06-.34V140.81A9.29,9.29,0,0,0,880.72,133.82Z" transform="translate(-275 -16)"/></g></g></svg>