<svg xmlns="http://www.w3.org/2000/svg" viewBox="0 0 743 743"><defs><style>.cls-1{isolation:isolate;}.cls-2{fill:#ecce7a;}.cls-3{mix-blend-mode:darken;}.cls-4{fill:#ff9f23;}</style></defs><title>Question_btn</title><g class="cls-1"><g id="Layer_1" data-name="Layer 1"><rect class="cls-2" width="743" height="743"/><g class="cls-3"><path class="cls-4" d="M643.33,127.25c88.56,0,175.75,40.78,175.75,138.34,0,90-103.09,124.57-125.23,157.08-16.63,24.18-11.07,58.16-56.74,58.16-29.75,0-44.29-24.2-44.29-46.34,0-82.39,121.06-101,121.06-168.88,0-37.34-24.85-59.48-66.39-59.48-88.56,0-54,91.3-121.06,91.3-24.21,0-45-14.53-45-42.19C481.42,187.38,558.89,127.25,643.33,127.25Zm-3.45,398.5a56.76,56.76,0,1,1-56.75,56.76A57,57,0,0,1,639.88,525.75Z" transform="translate(-278.76 -11.75)"/></g></g></g></svg>