<svg id="Layer_1" data-name="Layer 1" xmlns="http://www.w3.org/2000/svg" viewBox="0 0 743 743"><defs><style>.cls-1{fill:#ecce7a;}.cls-2{fill:#e5bb4b;}</style></defs><title>Question_btn</title><rect class="cls-1" width="743" height="743"/><path class="cls-2" d="M632.61,149.26c88.56,0,175.75,40.79,175.75,138.35,0,90-103.09,124.57-125.23,157.08-16.62,24.18-11.07,58.16-56.74,58.16-29.75,0-44.28-24.2-44.28-46.34,0-82.39,121-101,121-168.88,0-37.34-24.85-59.48-66.39-59.48-88.56,0-54,91.3-121,91.3-24.22,0-45-14.53-45-42.19C470.7,209.4,548.18,149.26,632.61,149.26Zm-3.45,398.51a56.76,56.76,0,1,1-56.75,56.75A57,57,0,0,1,629.16,547.77Z" transform="translate(-268.04 -33.77)"/></svg>