<svg id="Layer_1" data-name="Layer 1" xmlns="http://www.w3.org/2000/svg" viewBox="0 0 743 743"><defs><style>.cls-1{fill:#ecce7a;}.cls-2{fill:#e5bb4b;}</style></defs><title>Restaurant_btn</title><rect class="cls-1" width="743" height="743"/><g id="_Group_" data-name="&lt;Group&gt;"><path id="_Path_" data-name="&lt;Path&gt;" class="cls-2" d="M551.29,460.05q-3.27.29-6.52.28a76.57,76.57,0,0,1-17.41-2.18L396.21,589.31a16.46,16.46,0,0,0,0,23.3l33.94,33.95a16.47,16.47,0,0,0,23.29,0L611.07,489l-29.22-31.52Z" transform="translate(-273.56 -25.04)"/><path id="_Path_2" data-name="&lt;Path&gt;" class="cls-2" d="M896.43,249.93a15.75,15.75,0,0,0-22.27,0l-85,85a20.57,20.57,0,0,1-29.11-29.07l84.57-84.56a16.38,16.38,0,1,0-23.17-23.17l-84.54,84.54a20.56,20.56,0,0,1-29.1-29.06l85-85a15.78,15.78,0,0,0-22.31-22.31l-95.61,95.62c-23,23-30.24,55.28-22.8,84.66l64.09,64.1c29.38,7.41,61.68.15,84.64-22.83l95.62-95.61A15.75,15.75,0,0,0,896.43,249.93Z" transform="translate(-273.56 -25.04)"/><path id="_Path_3" data-name="&lt;Path&gt;" class="cls-2" d="M432,155a17.34,17.34,0,0,0-27.87,4.72,151.06,151.06,0,0,0,29.16,172.61l81.33,81.32a42.53,42.53,0,0,0,30.13,12.48c1.2,0,2.41-.05,3.61-.14l47.22-4L801.51,644a17.37,17.37,0,0,0,12.39,5.55h.3a17.43,17.43,0,0,0,12.31-5.08l35.26-35.27a17.37,17.37,0,0,0,0-24.53Z" transform="translate(-273.56 -25.04)"/></g></svg>