<svg xmlns="http://www.w3.org/2000/svg" viewBox="0 0 743 743"><defs><style>.cls-1{isolation:isolate;}.cls-2{fill:#ecce7a;}.cls-3{mix-blend-mode:darken;}.cls-4{fill:#ff9f23;}</style></defs><title>Restaurant_btn</title><g class="cls-1"><g id="Layer_1" data-name="Layer 1"><rect class="cls-2" width="743" height="743"/><g id="_Group_" data-name="&lt;Group&gt;" class="cls-3"><path id="_Path_" data-name="&lt;Path&gt;" class="cls-4" d="M498.73,444.64q-3.25.28-6.52.28a77.13,77.13,0,0,1-17.41-2.17L343.65,573.9a16.46,16.46,0,0,0,0,23.3l34,33.95a16.46,16.46,0,0,0,23.28,0l157.63-157.6L529.3,442Z" transform="translate(-221.01 -9.63)"/><path id="_Path_2" data-name="&lt;Path&gt;" class="cls-4" d="M843.88,234.53a15.73,15.73,0,0,0-22.27,0l-85,85a20.57,20.57,0,1,1-29.12-29.07l84.58-84.56a16.39,16.39,0,0,0-23.18-23.17l-84.53,84.54a20.56,20.56,0,1,1-29.1-29.06l85-85a15.77,15.77,0,0,0-22.3-22.31l-95.61,95.62c-23,23-30.25,55.28-22.81,84.66l64.1,64.1c29.37,7.41,61.67.15,84.64-22.83l95.62-95.61A15.76,15.76,0,0,0,843.88,234.53Z" transform="translate(-221.01 -9.63)"/><path id="_Path_3" data-name="&lt;Path&gt;" class="cls-4" d="M379.47,139.54a17.35,17.35,0,0,0-27.88,4.72,151.08,151.08,0,0,0,29.16,172.61l81.34,81.32a42.53,42.53,0,0,0,30.12,12.49c1.21,0,2.41-.06,3.62-.15l47.22-4L749,628.63a17.33,17.33,0,0,0,12.39,5.55h.3A17.45,17.45,0,0,0,774,629.1l35.26-35.27a17.36,17.36,0,0,0,0-24.53Z" transform="translate(-221.01 -9.63)"/></g></g></g></svg>