<svg xmlns="http://www.w3.org/2000/svg" viewBox="0 0 743 743"><defs><style>.cls-1{isolation:isolate;}.cls-2{fill:#ecce7a;}.cls-3{mix-blend-mode:darken;}.cls-4{fill:#ff9f23;}</style></defs><title>Shopping_btn</title><g class="cls-1"><g id="Layer_1" data-name="Layer 1"><rect class="cls-2" width="743" height="743"/><g class="cls-3"><path class="cls-4" d="M834.58,234.75a15.09,15.09,0,0,0-12-5.86h-384l-16.77-64.53a15.11,15.11,0,0,0-14.62-11.3H328.88a15.1,15.1,0,0,0,0,30.2h66.65l16.77,64.52h0l59.15,227.39a15.08,15.08,0,0,0,14.61,11.3H763.48a15.09,15.09,0,0,0,14.61-11.3l59.15-227.4A15.11,15.11,0,0,0,834.58,234.75ZM551.06,456.29H497.73l-11.86-45.6h65.19Zm0-75.79H478l-11.87-45.63h84.91V380.5Zm0-75.83H458.3l-11.86-45.59H551.06ZM668.29,456.29h-87v-45.6h87Zm0-75.79h-87V334.87h87Zm0-75.83h-87V259.08h87Zm83.52,151.62H698.49v-45.6h65.18Zm19.71-75.79h-73V334.87h84.9Zm19.73-75.83H698.49V259.08H803.11Z" transform="translate(-204.25 -9.56)"/><path class="cls-4" d="M526.11,498.77a55.15,55.15,0,1,0,55.14,55.14A55.2,55.2,0,0,0,526.11,498.77Zm0,80.1a25,25,0,1,1,24.95-25A25,25,0,0,1,526.11,578.87Z" transform="translate(-204.25 -9.56)"/><path class="cls-4" d="M723.43,498.77a55.15,55.15,0,1,0,55.15,55.14A55.19,55.19,0,0,0,723.43,498.77Zm0,80.1a25,25,0,1,1,25-25A25,25,0,0,1,723.43,578.87Z" transform="translate(-204.25 -9.56)"/></g></g></g></svg>