<svg id="Layer_1" data-name="Layer 1" xmlns="http://www.w3.org/2000/svg" viewBox="0 0 743 743"><defs><style>.cls-1{fill:#ecce7a;}.cls-2{fill:#e5bb4b;}</style></defs><title>Shopping_btn</title><rect class="cls-1" width="743" height="743"/><path class="cls-2" d="M891,243.44a15.58,15.58,0,0,0-12.31-6H482.87l-17.28-66.5a15.58,15.58,0,0,0-15.07-11.65H369.79a15.56,15.56,0,0,0,0,31.12h68.7l17.29,66.51h0l61,234.38A15.55,15.55,0,0,0,531.8,502.9H817.74a15.56,15.56,0,0,0,15.06-11.64l61-234.38A15.57,15.57,0,0,0,891,243.44ZM598.79,471.78h-55l-12.22-47h67.18Zm0-78.12H523.51l-12.23-47h87.51v47Zm0-78.14h-95.6l-12.22-47H598.79ZM719.63,471.78H629.92v-47h89.71Zm0-78.12H629.92v-47h89.71Zm0-78.14H629.92v-47h89.71Zm86.08,156.26h-55v-47h67.18ZM826,393.66H750.75v-47h87.51Zm20.33-78.14H750.75v-47H858.58Z" transform="translate(-252.75 -22.75)"/><path class="cls-2" d="M573.08,515.57a56.84,56.84,0,1,0,56.84,56.83A56.9,56.9,0,0,0,573.08,515.57Zm0,82.56a25.72,25.72,0,1,1,25.71-25.73A25.75,25.75,0,0,1,573.08,598.13Z" transform="translate(-252.75 -22.75)"/><path class="cls-2" d="M776.46,515.57A56.84,56.84,0,1,0,833.3,572.4,56.9,56.9,0,0,0,776.46,515.57Zm0,82.56a25.72,25.72,0,1,1,25.72-25.73A25.75,25.75,0,0,1,776.46,598.13Z" transform="translate(-252.75 -22.75)"/></svg>